<svg xmlns="http://www.w3.org/2000/svg" width="500" height="500" fill="none" viewBox="0 0 500 500">
    <path fill="#FB8968" d="M177.892 91.195l-.112.083c-.966-2.33-3.563-4.236-6.469-3.818-8.026 1.153-12.345 12.359-16.242 18.641-4.647 7.493-10.202 14.971-9.501 24.161.267 3.474 3.378 5.007 6.439 3.695 8.427-3.615 12.538-12.148 17.031-19.69 3.862-6.486 11.64-15.245 8.854-23.072zM174.081 135.995c-6.92 3.438-11.879 11.179-16.338 17.27-4.404 6.019-10.591 13.201-7.931 21.124.784 2.336 3.039 4.526 5.702 4.342 8.799-.613 12.998-8.49 17.196-15.328 4.191-6.828 9.232-14.418 9.799-22.57.317-4.535-4.913-6.583-8.428-4.838zM217.423 55.425c-5.947 1.396-10.171 7.425-13.442 12.213-3.906 5.72-6.332 11.171-7.174 18.065-.283 2.328 1.506 4.74 3.372 5.877 1.107.676 2.177.793 3.433.929 2.445.263 4.597-1.528 5.878-3.37 3.229-4.655 5.25-9.772 7.949-14.717 2.48-4.547 5.816-8.999 6.188-14.27.235-3.311-3.308-5.404-6.204-4.727zM284.466 51.328c-4.049 5.11-8.178 10.166-12.135 15.35-3.458 4.53-7.74 10.4-8.591 16.103-.615 4.133 3.024 7.296 6.973 5.36 5.095-2.5 9.459-8.311 12.727-12.89 3.793-5.314 7.294-10.86 10.923-16.287 3.922-5.857-5.422-13.28-9.897-7.636zM232.264 101.773c-.709-1.908-2.189-3.189-4.274-3.256-8.537-.277-14.863 9.136-19.179 15.31-3.844 5.499-9.096 16.802-1.758 22.026 7.011 4.994 15.2-4.666 18.089-10.022 3.483-6.457 9.952-16.456 7.122-24.058zM269.871 136.387c-.37-4.051-4.031-6.16-7.726-4.431-6.75 3.156-10.799 10.253-15.26 15.965-4.428 5.673-9.588 12.364-10.939 19.555-.745 3.963 2.516 8.274 6.89 6.891 7.7-2.432 13.629-9.08 18.142-15.573 4.418-6.35 9.626-14.41 8.893-22.407zM204.433 169.335c-13.844-4.838-38.564 36.877-23.413 41.657 8.925 2.816 15.44-15.028 18.561-20.509 2.141-3.758 12.59-18.445 4.852-21.148zM222.57 221.175c-6.377 3.012-10.615 9.897-14.372 15.594-3.883 5.885-7.777 12.978-6.553 20.148.688 4.017 5.691 5.204 8.8 3.581 5.955-3.107 9.194-10.869 11.962-16.693 2.825-5.941 6.489-12.207 6.603-18.935.059-3.474-3.623-5.023-6.44-3.695zM147.904 236.213c-4.535 6.253-9.132 12.438-13.56 18.772-3.909 5.596-8.213 11.147-7.255 18.188.38 2.806 3.844 4.051 6.219 3.533 6.635-1.458 10.603-8.775 13.809-14.254 3.924-6.695 7.148-13.61 10.194-20.742 2.736-6.414-5.224-11.259-9.407-5.497zM136.051 199.336c-.177-2.338-2.768-4.419-5.033-2.889-6.186 4.18-9.767 11.541-13.52 17.819-3.852 6.441-8.042 12.333-6.218 20.081.42 1.778 2.486 2.893 4.215 2.39 7.6-2.223 10.582-8.838 13.791-15.582 3.148-6.62 7.337-14.322 6.765-21.819zM109.057 115.466c-7.406 3.734-12.331 12.183-16.735 18.953-4.593 7.062-10.13 15.392-9.787 24.109.163 4.185 5.186 8.104 9.13 5.238 7.152-5.198 10.5-13.611 14.382-21.327 3.693-7.331 8.799-14.948 9.447-23.279.269-3.452-3.774-5.037-6.437-3.694zM264.716 189.337c-7.951 4.045-14.239 14.019-16.426 22.438-.852 3.289.594 6.583 3.408 8.373a5.5 5.5 0 0 0 1.771.748c3.388.736 6.477-.534 8.373-3.409 2.334-3.545 3.918-7.289 5.716-11.125 1.729-3.693 3.719-7.376 4.473-11.403.811-4.32-3.292-7.668-7.315-5.622zM330.601 173.509c-.315-2.916-2.526-4.826-5.517-4.201-3.193.668-5.507 1.58-7.969 3.78-2.141 1.912-3.878 4.066-5.704 6.272-2.014 2.436-3.573 4.898-5.073 7.672-1.996 3.695-2.201 6.24-.51 10.049.996 2.243 3.577 3.087 5.778 3.314 6.17.637 10.967-6.587 13.859-11.169 1.402-2.223 2.712-4.368 3.795-6.764 1.444-3.181 1.711-5.516 1.341-8.953zM275.714 237.889c-7.694-1.048-12.854 6.7-17.039 12.223-4.81 6.352-11.255 14.344-10.854 22.716.239 4.995 5.112 7.546 9.482 5.437 5.856-2.822 31.196-38.633 18.411-40.376zM294.95 277.579c-8.413 7.013-14.561 15.683-19.967 25.221-2.963 5.221-10.387 17.469-2.245 21.943 8.164 4.493 14.394-7.744 17.428-13.07 5.386-9.47 10.08-18.951 12.585-29.551 1.126-4.756-4.284-7.471-7.801-4.543zM350.476 230.768c-3.995 5.555-7.735 11.283-11.531 17.006-3.366 5.078-7.412 10.707-7.88 16.905-.229 3.049 3.279 5.585 6.107 4.65 6.417-2.119 11.018-8.564 14.378-14.188 3.816-6.38 6.692-13.192 8.455-20.356 1.47-5.983-6.161-8.699-9.529-4.017zM318.749 226.18c2.625-3.182.277-9.087-4.39-7.543-2.047.677-3.934.906-5.861 2.079-1.964 1.193-3.954 2.799-5.579 4.412-3.85 3.822-5.396 7.777-5.308 13.155.08 4.826 5.961 7.228 9.427 3.906 1.139-1.092 2.443-2.024 3.507-3.181 1.406-1.53 2.314-3.609 3.388-5.382.747-1.23 1.508-2.432 2.37-3.587.598-.801 1.215-1.559 1.727-2.42.277-.468 1.966-2.951.719-1.439zM322.694 88.055c-11.167 13.356-26.553 29.418-26.051 48.134.119 4.537 5.252 6.274 8.498 3.521 13.206-11.203 17.454-31.118 24.517-46.281 1.96-4.203-3.486-9.535-6.964-5.374zM337.219 28.15c-10.453 6.12-24.083 21.822-22.943 34.796.414 4.717 5.192 6.404 8.763 3.63 5.04-3.915 8.039-11.188 10.877-16.777 3.003-5.903 6.272-11.357 8.561-17.605 1.103-3.021-2.717-5.53-5.258-4.043zM367.497 85.466c-12.361 11.252-26.231 26.967-29.977 43.643-.929 4.129 3.831 9.015 7.886 6.063 13.921-10.14 23.564-27.611 30.888-42.918 2.711-5.666-3.933-11.215-8.797-6.788zM377.138 139.547c-6.67 5.738-11.33 14.372-15.591 21.989-4.292 7.679-7.495 14.919-8.258 23.749-.366 4.272 5.004 5.445 7.708 3.19 6.78-5.658 10.808-12.655 14.769-20.484 3.727-7.375 8.256-15.46 9.564-23.674.769-4.836-4.304-8.116-8.192-4.77zM400.818 189.789c-4.571 3.112-7.883 7.508-11.317 11.781-1.609 2.003-3.551 3.977-4.643 6.301-1.115 2.38-2.78 5.173-3.19 7.768-.55 3.479 1.948 6.274 5.551 5.551 5.232-1.05 10.249-5.547 13.555-9.52 3.699-4.448 7.523-9.334 8.933-15.048 1.183-4.8-4.326-9.941-8.889-6.833zM386.99 267.181c-6.281 4.156-10.785 10.767-15.621 16.461-4.628 5.449-10.84 11.548-12.139 18.816-.711 3.971 2.49 8.26 6.889 6.889 7.467-2.32 12.427-9.144 16.888-15.218 4.581-6.236 10.09-13.285 11.755-20.973.911-4.213-3.687-8.678-7.772-5.975zM217.166 305.572c-7.662 8.409-20.963 21.405-19.552 33.76.272 2.408 2.575 4.139 4.915 2.822 5.366-3.021 8.266-8.582 11.307-13.781 3.41-5.827 6.808-11.593 10.666-17.144 3.021-4.35-3.78-9.556-7.336-5.657zM176.606 279.221c-7.298 6.967-17.717 16.278-16.892 27.388.217 2.95 2.87 5.55 6.007 4.577 11.291-3.506 15.958-16.765 19.987-26.665 2.172-5.338-5.495-8.742-9.102-5.3zM97.986 280.852c-8.84 8.644-22.812 19.789-24.48 32.839-.283 2.229 2.589 4.332 4.63 3.527 5.798-2.284 10.214-7.756 13.807-12.731 4.44-6.148 8.12-12.563 11.908-19.11 2.129-3.679-2.82-7.503-5.865-4.525zM91.955 191.105c-8.528 9.509-22.297 22.626-22.375 36.311-.022 3.914 4.458 6.546 7.841 4.501 5.88-3.553 8.881-9.723 12.17-15.527 3.601-6.352 6.559-13.016 9.819-19.533 2.284-4.569-3.657-9.984-7.455-5.752zM127.262 308.604c-9.407.765-16.664 10.608-22.084 17.483-6.232 7.911-12.29 16.629-10.315 27.054.675 3.559 4.704 4.181 7.431 3.023 8.556-3.629 12.922-12.812 17.635-20.367 4.159-6.668 11.556-15.007 11.301-23.225-.064-2.012-1.771-4.145-3.968-3.968zM152.626 348.444c-9.538 8.319-22.462 25.763-19.995 39.101.721 3.896 5.965 5.754 9.144 3.723 5.932-3.799 8.772-11.146 11.602-17.368 3.037-6.672 6.236-13.167 8.224-20.234 1.524-5.425-5.085-8.616-8.975-5.222zM242.27 343.336c-6.681 3.177-11.602 8.957-16.104 14.743-4.302 5.537-8.676 12.876-7.08 20.078.667 3.008 4.499 5.338 7.463 4.237 6.459-2.391 10.391-8.913 13.938-14.54 3.742-5.926 7.797-11.417 10.299-17.971 1.982-5.185-4.431-8.489-8.516-6.547zM182.598 377.694c-4.378 6.564-8.421 13.393-12.526 20.133-3.635 5.971-7.961 11.928-7.963 19.198-.002 2.593 2.703 4.941 5.318 4.049 14.143-4.838 21.425-26.332 24.128-39.605 1.115-5.457-5.818-8.481-8.957-3.775zM300.152 336.918c-8.25.424-14.828 8.13-19.624 14.139-5.298 6.635-10.968 14.5-8.822 23.421.582 2.412 3.753 4.571 6.221 3.533 7.646-3.213 11.263-10.269 15.559-16.956 3.942-6.136 10.118-12.693 10.556-20.245.117-2.026-1.878-3.996-3.89-3.892zM173.11 465.577c-7.993 7.074-15.844 16.182-19.427 26.376-2.223 6.325 6.324 10.351 10.698 6.228 7.801-7.35 12.705-18.374 15.884-28.442 1.36-4.312-4.131-6.837-7.155-4.162zM208.025 406.521c-6.24 3.059-10.613 10.552-14.139 16.292-3.507 5.716-7.694 13.632-5.081 20.431 1.01 2.637 3.902 5.169 6.985 3.97 6.868-2.673 10.072-9.294 13.114-15.624 3.029-6.299 7.387-12.959 7.901-20.032.345-4.744-5.127-6.829-8.78-5.037zM225.825 449.074c-6.619 2.366-10.924 7.822-15.077 13.259-4.633 6.067-9.256 12.466-11.62 19.788-2.742 8.485 9.439 12.986 13.96 5.885 3.545-5.561 5.882-11.856 9.242-17.555 3.101-5.252 7.232-10.241 8.568-16.304.625-2.838-1.932-6.194-5.073-5.073zM257.262 390.292c-.647-3.607-5.344-5.053-8.228-3.349-5.172 3.057-7.831 9.507-10.703 14.588-2.98 5.272-5.868 11.141-4.645 17.29.54 2.704 4.089 4.794 6.7 3.806 6.153-2.331 9.628-8.15 12.162-13.978 2.543-5.856 5.885-11.856 4.714-18.357zM297.438 415.495c-.376-1.866-2.444-2.665-4.115-2.338-6.945 1.36-11.888 9.21-15.846 14.59-5.308 7.21-9.811 14.045-12.514 22.627-2.209 6.999 7.754 13.255 12.712 7.399 5.75-6.791 9.478-14.119 13.478-22.03 3.029-5.989 7.674-13.39 6.285-20.248zM352.177 350.822c-7.105 5.875-12.225 13.987-16.826 21.907-4.073 7.006-7.863 14.583-4.412 22.466.749 1.713 3.306 2.585 5.011 2.042 7.84-2.516 11.058-10.399 14.42-17.319 3.82-7.851 8.274-15.445 10.911-23.798 1.771-5.617-5.225-8.505-9.104-5.298zM390.335 388.191a53.12 53.12 0 0 0-1.183-.93l-.048-.024c-2.43-1.183-5.391-1.081-7.371.954-10.628 10.895-21.612 26.416-23.548 41.76-.474 3.755 4.666 6.384 7.61 4.366 12.699-8.7 21.341-25.862 26.104-40.208.617-1.856.017-4.659-1.564-5.918zM322.433 443.44c-5.185 7.225-10.53 14.386-15.221 21.951-3.939 6.347-8.568 13.465-6.76 21.131.656 2.771 3.974 4.687 6.698 3.804 7.45-2.421 11.094-9.884 14.462-16.519 4.042-7.962 7.398-16.27 10.901-24.478 2.92-6.855-5.629-12.098-10.08-5.889zM328.277 293.064c-5.216 8.067-12.727 18.559-10.114 28.693.612 2.358 3.805 3.935 5.944 2.418 7.937-5.633 10.438-16.649 14.651-24.985 3.519-6.967-6.217-12.717-10.481-6.126zM407.736 309.71c-5.259 4.949-9.909 10.229-14.287 15.987-3.955 5.204-9.493 11.337-8.584 18.314.378 2.908 2.856 5.886 6.204 4.726 6.67-2.31 9.564-8.548 13.083-14.227 3.879-6.253 7.611-12.519 11.158-18.957 2.659-4.818-3.557-9.625-7.574-5.843zM418.523 124.34c-7.208 9.013-25.948 23.132-18.274 36.564 1.378 2.413 4.898 2.884 6.842.883 4.131-4.251 7.323-9.949 11.106-14.621 4.319-5.33 8.466-10.337 10.008-17.189 1.151-5.123-5.8-10.492-9.682-5.637zM409.031 40.968c-4.985 2.972-9.861 6.183-13.38 10.94-3.022 4.082-5.852 10.51-5.167 15.73.441 3.363 3.802 4.91 6.509 2.694 1.711-1.402 2.741-3.348 4.228-4.971a82.008 82.008 0 0 0 4.661-5.559c2.898-3.778 5.674-7.74 9.278-10.889 4.365-3.818-1.259-10.848-6.129-7.945zM108.605 385.889c-6.649 1.5-12.323 8.044-16.42 13.149-4.063 5.063-9.877 12.445-9.393 19.25.23 3.247 3.452 6.844 7.092 5.402 6.203-2.456 10.345-8.979 14.273-14.187 3.824-5.067 9.419-11.094 10.574-17.489.681-3.775-2.213-7.008-6.126-6.125zM139.764 418.698c-8.343 3.336-13.868 11.408-19.17 18.382-5.447 7.168-11.566 15.619-13.747 24.456-1.115 4.509 3.904 8.889 8.114 6.24 7.629-4.804 13.799-13.118 18.927-20.439 4.968-7.094 11.172-15.336 11.686-24.213.161-2.749-3.099-5.509-5.81-4.426zM149.588 64.401c-.624-1.643-1.827-2.632-3.602-2.74-7.809-.476-13.099 10.205-16.35 16.013-3.969 7.095-8.295 16.081-4.841 23.995 1.093 2.501 4.985 3.27 7.132 1.87 6.27-4.083 8.134-12.651 11.04-19.208 2.493-5.627 9.036-13.572 6.621-19.93zM273.572 2.958c-5.021 4.978-9.212 10.363-13.349 16.077-3.822 5.28-8.678 11.618-9.663 18.18-.67 4.46 3.473 8.545 7.886 6.063 5.538-3.114 9.862-9.474 13.289-14.736 3.978-6.107 7.688-12.11 10.636-18.796 2.428-5.505-3.959-11.584-8.799-6.788z"/>
</svg>
