<svg xmlns="http://www.w3.org/2000/svg" width="622" height="622" fill="none" viewBox="0 0 622 622">
    <g fill="#FB8968" clip-path="url(#a)">
        <path d="M425.428 442.7l.083-.112c1.591 1.959 4.625 3.046 7.292 1.816 7.366-3.395 8.311-15.37 10.257-22.505 2.318-8.51 5.512-17.264 2.218-25.876-1.246-3.254-4.666-3.837-7.227-1.706-7.049 5.87-8.557 15.223-10.714 23.736-1.854 7.32-6.813 17.937-1.909 24.647zM416.305 398.658c5.654-5.27 8.201-14.106 10.74-21.218 2.506-7.027 6.389-15.678 1.58-22.516-1.418-2.016-4.205-3.472-6.706-2.537-8.262 3.097-10.041 11.848-12.116 19.601-2.071 7.742-4.74 16.457-2.959 24.435.99 4.439 6.588 4.91 9.461 2.235zM397.725 488.27c5.305-3.035 7.635-10.02 9.406-15.544 2.113-6.598 2.885-12.516 1.726-19.366-.392-2.313-2.795-4.116-4.909-4.674-1.254-.332-2.313-.139-3.557.089-2.418.445-3.972 2.776-4.674 4.908-1.768 5.384-2.247 10.866-3.424 16.377-1.081 5.067-3.011 10.287-1.864 15.448.718 3.241 4.713 4.237 7.296 2.762zM334.612 511.318c2.425-6.053 4.942-12.079 7.258-18.179 2.023-5.329 4.455-12.177 3.644-17.889-.588-4.138-4.98-6.133-8.214-3.151-4.172 3.85-6.699 10.667-8.527 15.989-2.12 6.177-3.896 12.492-5.828 18.731-2.09 6.735 8.986 11.187 11.667 4.499zM370.278 448.064c1.225 1.627 3.008 2.433 5.027 1.903 8.264-2.169 11.645-12.998 14.022-20.149 2.118-6.369 3.93-18.704-4.595-21.621-8.146-2.788-13.244 8.81-14.486 14.768-1.498 7.185-4.849 18.616.032 25.099zM324.349 425.6c1.51 3.779 5.622 4.758 8.671 2.046 5.572-4.952 7.431-12.911 10.079-19.66 2.628-6.702 5.667-14.589 4.912-21.869-.417-4.012-4.772-7.215-8.572-4.642-6.689 4.527-10.478 12.593-12.954 20.105-2.424 7.349-5.119 16.562-2.136 24.02zM377.695 375.347c14.654.691 26.459-46.355 10.568-46.618-9.36-.154-10.518 18.812-11.947 24.958-.981 4.214-6.811 21.276 1.379 21.66zM345.52 330.815c5.256-4.707 7.356-12.517 9.333-19.05 2.045-6.75 3.756-14.662.537-21.187-1.805-3.656-6.94-3.367-9.458-.924-4.824 4.678-5.716 13.043-6.71 19.416-1.013 6.503-2.739 13.555-.93 20.039.934 3.347 4.906 3.783 7.228 1.706zM412.822 295.103c2.566-7.29 5.209-14.53 7.648-21.866 2.153-6.481 4.696-13.031 1.77-19.508-1.165-2.583-4.841-2.788-6.971-1.614-5.946 3.29-7.663 11.438-9.175 17.605-1.853 7.538-2.973 15.088-3.859 22.795-.794 6.93 8.22 9.305 10.587 2.588zM434.704 327.08c.836 2.191 3.915 3.448 5.65 1.335 4.739-5.772 6.073-13.851 7.881-20.941 1.856-7.274 4.194-14.118.235-21.027-.91-1.585-3.209-2.065-4.723-1.089-6.653 4.298-7.625 11.491-8.779 18.872-1.131 7.246-2.95 15.825-.264 22.85zM484.506 399.798c6.035-5.693 8.348-15.198 10.64-22.945 2.389-8.081 5.323-17.647 2.508-25.908-1.35-3.966-7.284-6.291-10.248-2.419-5.375 7.025-6.186 16.046-7.707 24.551-1.45 8.083-4.174 16.841-2.419 25.014.727 3.386 5.055 3.754 7.226 1.707zM314.191 373.361c6.47-6.146 9.654-17.503 9.35-26.198-.121-3.397-2.447-6.143-5.656-7.057a5.504 5.504 0 0 0-1.911-.211c-3.458.26-6.058 2.359-7.056 5.656-1.227 4.064-1.677 8.106-2.308 12.297-.604 4.034-1.462 8.132-1.037 12.209.455 4.373 5.343 6.413 8.618 3.304zM255.533 407.327c1.134 2.706 3.798 3.907 6.488 2.454 2.871-1.55 4.83-3.085 6.563-5.897 1.507-2.444 2.559-5.004 3.68-7.64 1.236-2.91 2.029-5.715 2.676-8.803.86-4.112.331-6.611-2.377-9.78-1.594-1.866-4.31-1.94-6.485-1.53-6.097 1.149-8.636 9.443-10.102 14.662-.71 2.531-1.355 4.962-1.71 7.568-.478 3.462-.068 5.776 1.267 8.966zM289.798 329.946c7.676-1.19 10.414-10.09 12.852-16.58 2.8-7.461 6.7-16.963 3.929-24.875-1.654-4.721-7.054-5.778-10.643-2.509-4.809 4.376-18.893 45.939-6.138 43.964zM260.037 297.376c6.066-9.123 9.489-19.189 11.951-29.877 1.353-5.85 4.977-19.711-4.106-21.679-9.109-1.98-11.592 11.53-12.982 17.502-2.463 10.616-4.26 21.045-3.639 31.923.277 4.881 6.238 5.942 8.776 2.131zM220.147 358.094c2.247-6.465 4.199-13.024 6.207-19.593 1.779-5.83 4.053-12.38 2.734-18.456-.65-2.989-4.737-4.42-7.182-2.718-5.548 3.862-8.121 11.354-9.739 17.705-1.84 7.205-2.654 14.556-2.302 21.928.297 6.156 8.388 6.585 10.282 1.134zM251.876 353.446c-1.61 3.798 2.326 8.791 6.36 5.98 1.77-1.233 3.513-1.991 5.027-3.665 1.543-1.704 2.993-3.811 4.091-5.822 2.601-4.762 2.955-8.995 1.337-14.126-1.452-4.605-7.777-5.231-10.152-1.057-.781 1.371-1.766 2.637-2.456 4.05-.912 1.868-1.19 4.12-1.714 6.126-.364 1.393-.751 2.762-1.249 4.116-.344.938-.72 1.841-.966 2.812-.132.528-1.042 3.391-.278 1.586zM287.485 487.006c6.898-15.991 17.07-35.778 11.251-53.581-1.408-4.316-6.825-4.517-9.153-.952-9.466 14.508-7.86 34.814-10.307 51.367-.681 4.588 6.061 8.147 8.209 3.166zM290.643 548.585c8.277-8.847 16.867-27.79 12.074-39.905-1.742-4.404-6.804-4.659-9.437-.98-3.716 5.19-4.517 13.019-5.644 19.187-1.196 6.517-2.775 12.678-3.188 19.321-.196 3.212 4.183 4.528 6.195 2.377zM245.265 502.265c8.643-14.313 17.46-33.336 16.296-50.394-.287-4.223-6.244-7.55-9.291-3.564-10.455 13.692-14.719 33.194-17.375 49.959-.984 6.206 6.97 9.631 10.37 3.999zM220.599 453.162c4.759-7.404 6.765-17.012 8.678-25.53 1.925-8.587 2.931-16.442 1.145-25.125-.867-4.201-6.351-3.795-8.301-.861-4.887 7.359-6.753 15.216-8.318 23.852-1.47 8.135-3.507 17.178-2.419 25.426.642 4.857 6.442 6.555 9.215 2.238zM183.566 411.743c3.495-4.288 5.417-9.448 7.491-14.523.972-2.38 2.271-4.827 2.654-7.366.391-2.601 1.191-5.753.844-8.358-.465-3.493-3.657-5.46-6.905-3.74-4.718 2.499-8.245 8.242-10.282 12.995-2.278 5.319-4.552 11.094-4.274 16.975.235 4.94 6.983 8.297 10.472 4.017zM174.753 333.595c4.837-5.777 7.27-13.4 10.283-20.238 2.884-6.545 7.101-14.164 6.273-21.503-.451-4.011-4.743-7.21-8.57-4.641-6.498 4.354-9.307 12.311-11.852 19.408-2.614 7.286-5.886 15.615-5.29 23.461.329 4.299 6.01 7.27 9.156 3.513zM326.633 248.353c4.949-10.248 13.995-26.502 9.12-37.946-.949-2.231-3.65-3.234-5.519-1.304-4.283 4.427-5.477 10.586-6.911 16.438-1.607 6.56-3.221 13.058-5.336 19.48-1.657 5.032 6.349 8.085 8.646 3.332zM373.038 262.052c5.01-8.762 12.344-20.661 8.385-31.078-1.049-2.766-4.335-4.503-7.065-2.675-9.826 6.581-10.519 20.625-11.559 31.267-.561 5.737 7.762 6.814 10.239 2.486zM447.955 238.066c6.01-10.809 16.228-25.48 14.106-38.468-.364-2.218-3.717-3.415-5.445-2.061-4.908 3.844-7.581 10.349-9.607 16.144-2.504 7.161-4.203 14.362-5.969 21.719-.992 4.135 4.844 6.39 6.915 2.666zM479.332 322.397c5.465-11.549 14.925-28.053 11.097-41.196-1.095-3.759-6.141-5.006-8.802-2.08-4.624 5.083-5.742 11.855-7.24 18.358-1.641 7.117-2.576 14.35-3.844 21.529-.887 5.032 6.354 8.53 8.789 3.389zM411.969 219.806c8.801-3.416 12.953-14.923 16.189-23.061 3.719-9.362 7.042-19.449 2.174-28.881-1.662-3.22-5.703-2.667-7.987-.78-7.169 5.92-8.736 15.971-11.1 24.558-2.086 7.579-6.8 17.685-4.212 25.492.635 1.91 2.88 3.469 4.936 2.672zM376.288 188.841c6.773-10.697 14.19-31.108 8.02-43.193-1.802-3.53-7.36-3.816-9.829-.962-4.604 5.334-5.231 13.189-6.171 19.961-1.009 7.264-2.224 14.404-2.114 21.746.086 5.637 7.332 6.812 10.094 2.448zM291.794 219.304c5.499-4.951 8.569-11.897 11.235-18.728 2.546-6.536 4.647-14.821 1.063-21.271-1.497-2.693-5.836-3.835-8.364-1.934-5.511 4.134-7.421 11.51-9.217 17.916-1.899 6.749-4.221 13.17-4.75 20.169-.422 5.535 6.67 6.875 10.033 3.848zM339.209 169.343c2.326-7.541 4.254-15.243 6.268-22.876 1.783-6.762 4.231-13.707 2.16-20.678-.738-2.487-4.001-3.967-6.254-2.366-12.18 8.672-13.032 31.358-11.838 44.855.487 5.55 7.996 6.472 9.664 1.065zM238.125 241.965c7.789-2.76 11.899-12.024 14.784-19.154 3.188-7.872 6.381-17.03 1.779-24.971-1.246-2.147-4.902-3.313-6.972-1.614-6.415 5.261-7.87 13.058-10.083 20.695-2.029 7.007-6.081 15.055-4.347 22.422.465 1.975 2.94 3.295 4.839 2.622zM323.243 82.374c5.646-9.062 10.577-20.034 11.105-30.83.328-6.699-9.015-8.12-12.033-2.92-5.384 9.271-6.942 21.24-7.118 31.8-.075 4.522 5.91 5.377 8.046 1.95zM306.608 148.955c5.111-4.713 7.168-13.144 8.911-19.653 1.733-6.481 3.489-15.265-.955-21.038-1.72-2.241-5.215-3.844-7.83-1.815-5.822 4.522-7.006 11.783-8.118 18.72-1.107 6.904-3.387 14.533-1.862 21.461 1.022 4.647 6.863 5.086 9.854 2.325zM277.406 113.231c5.671-4.156 8.244-10.615 10.674-17.013 2.712-7.138 5.32-14.592 5.499-22.286.209-8.918-12.754-9.76-15.064-1.662-1.813 6.343-2.258 13.046-3.854 19.468-1.476 5.92-4.014 11.882-3.566 18.076.21 2.899 3.619 5.388 6.311 3.417zM264.028 178.558c1.649 3.274 6.565 3.321 8.843.864 4.088-4.407 4.798-11.349 6.103-17.039 1.353-5.905 2.449-12.356-.478-17.903-1.289-2.439-5.287-3.43-7.509-1.739-5.235 3.99-6.907 10.561-7.674 16.871-.769 6.34-2.262 13.047.715 18.946zM218.318 165.85c.894 1.682 3.104 1.858 4.613 1.068 6.271-3.285 8.772-12.22 11.032-18.508 3.034-8.426 5.402-16.264 5.546-25.264.122-7.341-11.215-10.498-14.298-3.469-3.576 8.151-5.062 16.24-6.64 24.966-1.197 6.606-3.539 15.028-.253 21.207zM184.279 243.47c5.137-7.659 7.733-16.898 9.885-25.803 1.908-7.879 3.381-16.225-2.177-22.799-1.206-1.429-3.907-1.536-5.387-.528-6.799 4.647-7.636 13.124-8.887 20.717-1.423 8.617-3.528 17.169-3.674 25.93-.096 5.89 7.435 6.665 10.24 2.483zM137.034 218.522c.463.193.931.376 1.4.555l.052.009c2.668.441 5.478-.5 6.796-3.017 7.083-13.476 13.188-31.491 10.669-46.756-.616-3.734-6.295-4.789-8.542-2.015-9.695 11.963-13.087 30.883-13.562 45.997-.062 1.955 1.312 4.472 3.187 5.227zM186.384 146.185c2.91-8.407 5.993-16.797 8.333-25.388 1.967-7.209 4.375-15.354.455-22.19-1.418-2.469-5.146-3.36-7.507-1.736-6.452 4.446-7.818 12.641-9.155 19.963-1.604 8.787-2.453 17.709-3.471 26.578-.844 7.406 8.847 9.995 11.345 2.773zM223.666 292.033c2.701-9.222 6.91-21.424 1.515-30.395-1.259-2.086-4.771-2.688-6.389-.623-6.003 7.664-5.26 18.94-6.922 28.133-1.387 7.684 9.587 10.421 11.796 2.885zM142.733 298.734c3.63-6.245 6.583-12.634 9.139-19.404 2.308-6.117 5.868-13.576 3.008-20.007-1.193-2.68-4.417-4.829-7.297-2.763-5.737 4.118-6.733 10.925-8.487 17.373-1.935 7.102-3.727 14.174-5.292 21.358-1.175 5.378 6.156 8.215 8.929 3.443zM185.255 479.545c4.34-10.698 18.282-29.58 7.093-40.27-2.009-1.92-5.518-1.368-6.811 1.105-2.748 5.253-4.184 11.628-6.479 17.186-2.621 6.343-5.17 12.326-4.694 19.335.358 5.24 8.554 8.406 10.891 2.644zM218.132 556.776c3.933-4.271 7.692-8.74 9.71-14.306 1.733-4.775 2.613-11.744.468-16.554-1.382-3.1-5.047-3.625-7.01-.728-1.24 1.833-1.673 3.992-2.636 5.973a82.187 82.187 0 0 0-2.883 6.659c-1.702 4.449-3.234 9.039-5.791 13.086-3.097 4.906 4.302 10.043 8.142 5.87zM407.818 140.384c5.947-3.335 9.521-11.228 11.993-17.291 2.452-6.013 5.921-14.748 3.516-21.135-1.147-3.047-5.261-5.578-8.34-3.157-5.247 4.123-7.359 11.559-9.639 17.673-2.222 5.949-5.867 13.323-5.151 19.784.423 3.814 4.12 6.088 7.621 4.126zM368.585 117.812c7.048-5.578 10.044-14.893 13.138-23.091 3.179-8.427 6.635-18.275 6.206-27.37-.216-4.642-6.278-7.41-9.559-3.669-5.944 6.782-9.49 16.513-12.319 24.995-2.74 8.219-6.338 17.891-4.299 26.549.629 2.681 4.543 4.398 6.833 2.586zM460.208 460.318c1.066 1.397 2.502 2.003 4.234 1.6 7.624-1.77 9.65-13.521 11.11-20.016 1.782-7.935 3.367-17.785-2.201-24.387-1.762-2.087-5.712-1.714-7.372.241-4.847 5.703-4.191 14.45-5.107 21.565-.786 6.106-4.794 15.59-.664 20.997zM358.853 554.589c3.394-6.204 5.877-12.563 8.213-19.222 2.159-6.152 5.008-13.614 4.081-20.187-.63-4.467-5.767-7.202-9.291-3.564-4.421 4.566-6.753 11.896-8.539 17.919-2.072 6.99-3.918 13.804-4.837 21.055-.758 5.971 7.1 9.978 10.373 3.999z"/>
    </g>
    <defs>
        <clipPath id="a">
            <path fill="#fff" d="M622 479.406h500.163v500.163H622z" transform="rotate(163.435 622 479.406)"/>
        </clipPath>
    </defs>
</svg>
