<svg xmlns="http://www.w3.org/2000/svg" width="500" height="586" fill="none" viewBox="0 0 500 586">
    <path fill="#252631" d="M179.312 133.974l-.112.083c-.966-2.33-3.563-4.236-6.469-3.817-8.026 1.152-12.345 12.358-16.243 18.64-4.646 7.493-10.201 14.971-9.5 24.162.267 3.473 3.378 5.006 6.439 3.694 8.427-3.615 12.538-12.148 17.031-19.69 3.862-6.485 11.64-15.245 8.854-23.072zM175.501 178.774c-6.92 3.438-11.879 11.18-16.338 17.27-4.404 6.019-10.591 13.202-7.931 21.125.784 2.336 3.039 4.525 5.702 4.341 8.799-.613 12.998-8.49 17.196-15.328 4.191-6.827 9.232-14.418 9.799-22.57.317-4.535-4.913-6.582-8.428-4.838zM218.843 98.204c-5.947 1.397-10.172 7.425-13.442 12.214-3.906 5.719-6.332 11.171-7.174 18.064-.283 2.328 1.506 4.741 3.372 5.878 1.107.675 2.177.793 3.433.928 2.444.263 4.597-1.528 5.878-3.37 3.228-4.655 5.25-9.771 7.949-14.717 2.48-4.547 5.816-8.999 6.188-14.271.235-3.31-3.308-5.403-6.204-4.726zM285.886 94.108c-4.049 5.108-8.178 10.165-12.136 15.35-3.457 4.529-7.739 10.399-8.59 16.103-.615 4.133 3.024 7.296 6.973 5.36 5.095-2.5 9.459-8.312 12.727-12.891 3.792-5.314 7.294-10.859 10.923-16.286 3.922-5.858-5.422-13.28-9.897-7.636zM233.684 144.552c-.71-1.908-2.189-3.189-4.275-3.256-8.536-.277-14.862 9.136-19.178 15.31-3.844 5.499-9.096 16.802-1.758 22.027 7.011 4.993 15.2-4.667 18.088-10.023 3.484-6.457 9.953-16.455 7.123-24.058zM271.291 179.166c-.37-4.051-4.031-6.16-7.726-4.431-6.75 3.157-10.799 10.253-15.26 15.965-4.428 5.673-9.589 12.365-10.939 19.555-.745 3.964 2.516 8.274 6.89 6.891 7.699-2.432 13.629-9.08 18.142-15.573 4.418-6.35 9.626-14.41 8.893-22.407zM205.853 212.114c-13.844-4.838-38.564 36.877-23.413 41.657 8.925 2.816 15.44-15.028 18.561-20.509 2.141-3.758 12.59-18.445 4.852-21.148zM223.99 263.955c-6.377 3.011-10.615 9.896-14.372 15.593-3.883 5.885-7.777 12.978-6.553 20.148.688 4.017 5.691 5.204 8.8 3.581 5.955-3.107 9.194-10.869 11.962-16.692 2.824-5.942 6.489-12.208 6.603-18.936.059-3.473-3.623-5.023-6.44-3.694zM149.324 278.992c-4.535 6.254-9.132 12.438-13.56 18.772-3.909 5.596-8.213 11.148-7.256 18.188.381 2.807 3.845 4.051 6.22 3.533 6.635-1.458 10.603-8.775 13.809-14.254 3.924-6.695 7.148-13.61 10.194-20.742 2.736-6.413-5.224-11.259-9.407-5.497zM137.471 242.115c-.177-2.338-2.768-4.419-5.033-2.889-6.186 4.18-9.767 11.541-13.52 17.82-3.852 6.441-8.042 12.332-6.218 20.08.42 1.779 2.486 2.894 4.215 2.39 7.6-2.223 10.582-8.837 13.79-15.581 3.149-6.621 7.337-14.322 6.766-21.82zM110.477 158.245c-7.406 3.734-12.331 12.183-16.735 18.953-4.593 7.062-10.13 15.392-9.787 24.11.163 4.184 5.186 8.104 9.13 5.238 7.152-5.199 10.5-13.612 14.382-21.327 3.693-7.332 8.799-14.948 9.446-23.28.27-3.451-3.773-5.037-6.436-3.694zM266.136 232.116c-7.951 4.045-14.239 14.02-16.426 22.438-.852 3.289.594 6.583 3.408 8.374a5.52 5.52 0 0 0 1.771.747c3.388.736 6.477-.534 8.373-3.408 2.334-3.545 3.918-7.29 5.716-11.126 1.729-3.693 3.719-7.375 4.473-11.403.811-4.319-3.292-7.667-7.315-5.622zM332.021 216.288c-.315-2.916-2.526-4.826-5.517-4.2-3.193.667-5.507 1.579-7.969 3.78-2.141 1.912-3.878 4.065-5.704 6.272-2.014 2.436-3.573 4.897-5.073 7.672-1.996 3.694-2.201 6.24-.51 10.048.996 2.243 3.577 3.087 5.778 3.314 6.17.638 10.966-6.586 13.858-11.169 1.402-2.223 2.713-4.368 3.796-6.764 1.444-3.181 1.711-5.515 1.341-8.953zM277.134 280.668c-7.694-1.048-12.854 6.7-17.039 12.224-4.81 6.351-11.255 14.344-10.855 22.715.239 4.995 5.113 7.546 9.483 5.437 5.855-2.822 31.196-38.633 18.411-40.376zM296.37 320.358c-8.413 7.013-14.562 15.683-19.967 25.221-2.964 5.221-10.387 17.469-2.245 21.943 8.164 4.493 14.394-7.744 17.428-13.07 5.385-9.47 10.08-18.951 12.585-29.551 1.126-4.756-4.284-7.471-7.801-4.543zM351.896 273.548c-3.995 5.554-7.735 11.283-11.531 17.005-3.366 5.079-7.412 10.707-7.88 16.905-.229 3.049 3.279 5.585 6.107 4.651 6.417-2.119 11.018-8.564 14.378-14.189 3.816-6.38 6.692-13.191 8.455-20.355 1.47-5.983-6.161-8.7-9.529-4.017zM320.169 268.959c2.625-3.181.277-9.087-4.39-7.543-2.047.677-3.934.906-5.861 2.079-1.964 1.193-3.954 2.799-5.579 4.412-3.85 3.822-5.396 7.777-5.308 13.155.08 4.826 5.961 7.228 9.427 3.906 1.139-1.091 2.443-2.024 3.507-3.181 1.406-1.529 2.314-3.609 3.388-5.381.747-1.231 1.508-2.432 2.37-3.588.598-.8 1.215-1.559 1.727-2.419.277-.468 1.966-2.952.719-1.44zM324.114 130.835c-11.167 13.356-26.553 29.417-26.051 48.134.119 4.536 5.252 6.273 8.498 3.521 13.206-11.204 17.454-31.119 24.517-46.282 1.959-4.202-3.486-9.534-6.964-5.373zM338.639 70.93c-10.453 6.119-24.083 21.821-22.943 34.796.414 4.716 5.192 6.403 8.763 3.629 5.039-3.914 8.039-11.188 10.877-16.777 3.003-5.903 6.272-11.357 8.561-17.604 1.103-3.022-2.717-5.531-5.258-4.044zM368.917 128.246c-12.361 11.251-26.231 26.966-29.977 43.642-.929 4.129 3.831 9.015 7.886 6.063 13.921-10.14 23.564-27.611 30.888-42.917 2.711-5.667-3.934-11.215-8.797-6.788zM378.558 182.326c-6.67 5.739-11.331 14.372-15.591 21.989-4.292 7.68-7.495 14.92-8.258 23.749-.366 4.272 5.004 5.446 7.708 3.191 6.78-5.659 10.808-12.656 14.769-20.485 3.726-7.375 8.256-15.46 9.564-23.673.769-4.837-4.304-8.117-8.192-4.771zM402.238 232.568c-4.571 3.113-7.883 7.508-11.317 11.781-1.609 2.003-3.551 3.977-4.643 6.302-1.115 2.38-2.78 5.172-3.19 7.767-.55 3.48 1.947 6.274 5.551 5.551 5.232-1.049 10.249-5.547 13.555-9.52 3.699-4.448 7.523-9.333 8.933-15.048 1.183-4.8-4.326-9.94-8.889-6.833zM388.41 309.96c-6.281 4.156-10.785 10.767-15.621 16.461-4.628 5.45-10.84 11.548-12.139 18.816-.711 3.972 2.49 8.26 6.889 6.889 7.467-2.32 12.427-9.143 16.888-15.218 4.581-6.236 10.09-13.285 11.755-20.973.91-4.212-3.687-8.678-7.772-5.975zM218.586 348.352c-7.662 8.409-20.963 21.405-19.553 33.759.273 2.408 2.576 4.139 4.916 2.822 5.366-3.021 8.266-8.582 11.307-13.78 3.41-5.828 6.808-11.594 10.666-17.145 3.021-4.349-3.781-9.556-7.336-5.656zM178.026 322c-7.298 6.967-17.717 16.278-16.892 27.388.217 2.95 2.87 5.551 6.007 4.577 11.291-3.506 15.958-16.764 19.987-26.665 2.172-5.338-5.495-8.742-9.102-5.3zM99.406 323.631c-8.84 8.644-22.812 19.79-24.48 32.839-.283 2.229 2.589 4.333 4.63 3.528 5.798-2.285 10.214-7.756 13.807-12.731 4.44-6.149 8.12-12.564 11.908-19.111 2.129-3.679-2.82-7.503-5.865-4.525zM93.375 233.884C84.847 243.393 71.078 256.51 71 270.195c-.022 3.914 4.457 6.547 7.841 4.501 5.88-3.553 8.881-9.723 12.17-15.527 3.6-6.352 6.558-13.016 9.819-19.533 2.284-4.569-3.657-9.984-7.455-5.752zM128.682 351.383c-9.407.765-16.664 10.608-22.084 17.484-6.232 7.911-12.29 16.629-10.315 27.053.675 3.559 4.704 4.181 7.431 3.024 8.556-3.629 12.922-12.813 17.635-20.367 4.158-6.669 11.556-15.008 11.3-23.226-.063-2.012-1.77-4.145-3.967-3.968zM154.046 391.223c-9.538 8.32-22.462 25.763-19.995 39.101.721 3.896 5.965 5.755 9.144 3.723 5.932-3.798 8.772-11.146 11.602-17.368 3.037-6.672 6.236-13.167 8.224-20.233 1.524-5.426-5.085-8.617-8.975-5.223zM243.689 386.115c-6.68 3.177-11.601 8.957-16.103 14.743-4.302 5.537-8.676 12.876-7.08 20.078.667 3.008 4.499 5.338 7.463 4.237 6.459-2.39 10.391-8.913 13.938-14.54 3.742-5.925 7.797-11.416 10.299-17.971 1.982-5.184-4.431-8.489-8.517-6.547zM184.018 420.474c-4.378 6.563-8.421 13.392-12.526 20.132-3.635 5.971-7.961 11.928-7.963 19.199-.002 2.593 2.703 4.941 5.318 4.048 14.143-4.837 21.425-26.332 24.128-39.605 1.115-5.457-5.818-8.48-8.957-3.774zM301.572 379.697c-8.25.424-14.828 8.13-19.624 14.139-5.298 6.635-10.969 14.5-8.822 23.421.582 2.412 3.753 4.571 6.221 3.533 7.646-3.213 11.262-10.269 15.559-16.955 3.942-6.137 10.117-12.694 10.556-20.246.117-2.025-1.878-3.995-3.89-3.892zM174.53 508.356c-7.993 7.074-15.844 16.183-19.427 26.376-2.223 6.326 6.324 10.351 10.698 6.228 7.801-7.349 12.705-18.373 15.884-28.442 1.36-4.312-4.131-6.837-7.155-4.162zM209.445 449.3c-6.24 3.06-10.614 10.552-14.139 16.292-3.508 5.717-7.694 13.632-5.081 20.431 1.01 2.637 3.902 5.169 6.985 3.97 6.868-2.673 10.072-9.293 13.114-15.623 3.029-6.3 7.387-12.96 7.901-20.033.344-4.744-5.127-6.829-8.78-5.037zM227.245 491.853c-6.619 2.367-10.925 7.822-15.077 13.259-4.633 6.067-9.256 12.467-11.62 19.788-2.742 8.485 9.439 12.986 13.96 5.885 3.545-5.56 5.882-11.856 9.242-17.554 3.101-5.252 7.232-10.242 8.568-16.305.625-2.838-1.932-6.194-5.073-5.073zM258.682 433.071c-.647-3.607-5.344-5.053-8.228-3.349-5.172 3.058-7.831 9.507-10.703 14.588-2.98 5.272-5.868 11.141-4.645 17.29.54 2.705 4.089 4.794 6.7 3.806 6.153-2.33 9.628-8.15 12.162-13.978 2.543-5.855 5.885-11.856 4.714-18.357zM298.858 458.275c-.376-1.867-2.444-2.665-4.115-2.338-6.945 1.36-11.888 9.209-15.846 14.589-5.308 7.21-9.811 14.045-12.514 22.628-2.209 6.999 7.754 13.254 12.712 7.399 5.75-6.792 9.478-14.119 13.478-22.03 3.029-5.989 7.674-13.391 6.285-20.248zM353.597 393.601c-7.105 5.875-12.225 13.988-16.826 21.907-4.073 7.007-7.864 14.583-4.412 22.467.749 1.712 3.306 2.585 5.011 2.041 7.84-2.516 11.058-10.399 14.42-17.318 3.82-7.852 8.274-15.446 10.911-23.799 1.77-5.617-5.225-8.505-9.104-5.298zM391.755 430.971a47.828 47.828 0 0 0-1.183-.93l-.048-.024c-2.43-1.183-5.391-1.082-7.371.954-10.628 10.894-21.612 26.416-23.548 41.76-.474 3.754 4.666 6.383 7.61 4.366 12.699-8.7 21.341-25.863 26.104-40.209.617-1.856.017-4.659-1.564-5.917zM323.853 486.219c-5.185 7.226-10.53 14.386-15.221 21.951-3.939 6.347-8.568 13.465-6.76 21.132.656 2.77 3.973 4.686 6.698 3.804 7.449-2.422 11.094-9.885 14.462-16.519 4.041-7.963 7.398-16.27 10.901-24.478 2.92-6.856-5.629-12.098-10.08-5.89zM329.697 335.843c-5.216 8.067-12.727 18.559-10.114 28.693.611 2.358 3.805 3.936 5.944 2.418 7.937-5.633 10.438-16.649 14.651-24.984 3.519-6.967-6.217-12.717-10.481-6.127zM409.155 352.489c-5.258 4.949-9.908 10.229-14.286 15.988-3.955 5.204-9.493 11.336-8.584 18.313.378 2.908 2.856 5.886 6.204 4.727 6.67-2.31 9.564-8.549 13.083-14.227 3.878-6.254 7.611-12.52 11.158-18.957 2.659-4.818-3.557-9.626-7.575-5.844zM419.943 167.12c-7.208 9.013-25.948 23.132-18.274 36.564 1.378 2.412 4.898 2.884 6.841.882 4.131-4.25 7.324-9.949 11.107-14.621 4.319-5.33 8.466-10.337 10.008-17.189 1.151-5.122-5.8-10.492-9.682-5.636zM410.451 83.748c-4.985 2.971-9.861 6.182-13.38 10.94-3.022 4.081-5.852 10.509-5.167 15.728.44 3.365 3.802 4.912 6.509 2.696 1.711-1.402 2.741-3.348 4.228-4.972a82.428 82.428 0 0 0 4.661-5.559c2.898-3.778 5.674-7.74 9.278-10.888 4.365-3.819-1.259-10.85-6.129-7.945zM110.025 428.668c-6.649 1.5-12.323 8.045-16.42 13.15-4.063 5.062-9.877 12.444-9.393 19.249.23 3.247 3.452 6.844 7.092 5.402 6.202-2.456 10.345-8.979 14.273-14.187 3.824-5.067 9.419-11.094 10.574-17.489.681-3.774-2.213-7.007-6.126-6.125zM141.184 461.477c-8.343 3.336-13.868 11.409-19.17 18.382-5.448 7.168-11.566 15.619-13.747 24.456-1.115 4.509 3.904 8.889 8.114 6.24 7.629-4.804 13.799-13.117 18.927-20.439 4.968-7.094 11.172-15.336 11.686-24.213.161-2.749-3.099-5.509-5.81-4.426zM151.007 107.181c-.623-1.643-1.826-2.633-3.601-2.741-7.809-.476-13.099 10.206-16.35 16.014-3.969 7.094-8.295 16.081-4.842 23.994 1.094 2.501 4.986 3.27 7.133 1.87 6.27-4.083 8.134-12.651 11.04-19.208 2.493-5.627 9.036-13.572 6.62-19.929zM274.992 45.737c-5.021 4.978-9.212 10.363-13.349 16.078-3.822 5.28-8.678 11.617-9.663 18.18-.67 4.46 3.473 8.544 7.886 6.063 5.538-3.115 9.862-9.475 13.289-14.737 3.978-6.107 7.688-12.11 10.636-18.796 2.428-5.505-3.96-11.584-8.799-6.788z"/>
</svg>
